<?xml version="1.0" encoding="utf-8"?>
<!-- Generator: Adobe Illustrator 23.0.1, SVG Export Plug-In . SVG Version: 6.00 Build 0)  -->
<svg version="1.1" id="Capa_1" xmlns="http://www.w3.org/2000/svg" xmlns:xlink="http://www.w3.org/1999/xlink" x="0px" y="0px"
	 viewBox="0 0 36.09 34.6" style="enable-background:new 0 0 36.09 34.6;" xml:space="preserve">
<style type="text/css">
	.st0{fill:#FFFFFF;}
</style>
<g>
	<path class="st0" d="M25.5,12.15c0.06,0,0.1,0,0.1,0s-0.19-0.26-0.34-0.51c-0.15-0.25-0.54-0.66-0.54-0.66s-0.04,0.14-0.04,0.26
		c0,0.12,0.12,0.22,0.12,0.22l0.17,0.21c0,0,0.1,0.27,0.2,0.39C25.23,12.14,25.4,12.15,25.5,12.15z"/>
	<path class="st0" d="M27.64,13.52c-0.51-1.21-1.25-2.3-2.19-3.24c-0.94-0.94-2.03-1.67-3.24-2.19c-1.26-0.53-2.59-0.8-3.97-0.8
		c-1.38,0-2.71,0.27-3.97,0.8c-1.22,0.51-2.31,1.25-3.24,2.19c-0.94,0.94-1.67,2.03-2.19,3.24c-0.53,1.26-0.8,2.59-0.8,3.96
		c0,1.37,0.27,2.71,0.8,3.96c0.51,1.21,1.25,2.3,2.19,3.24c0.94,0.94,2.03,1.67,3.24,2.19c1.26,0.53,2.59,0.8,3.97,0.8
		c1.38,0,2.71-0.27,3.97-0.8c1.22-0.51,2.31-1.25,3.24-2.19c0.94-0.94,1.67-2.03,2.19-3.24c0.53-1.26,0.8-2.59,0.8-3.96
		S28.17,14.77,27.64,13.52z M18.42,8.52c0,0,0.35-0.04,0.76-0.04c0.13,0,0.26,0,0.38,0.01c0.56,0.04,1.02,0.26,1.04,0.27l0.02,0.01
		l0,0.03c0.01,0.04,0.02,0.14-0.01,0.2c0,0,0.01,0.01,0.01,0.01c0.07,0.05,0.17,0.12,0.19,0.23c0.03,0.15-0.2,0.26-0.43,0.34
		c-0.03,0.01-0.06,0.02-0.07,0.03c0,0,0,0-0.01,0.02c-0.01,0.03-0.02,0.07-0.06,0.13c-0.03,0.04-0.05,0.08-0.1,0.08
		c-0.02,0-0.04-0.01-0.06-0.02c-0.02-0.01-0.05-0.03-0.1-0.05c-0.07-0.02-0.15-0.06-0.23-0.09c-0.09-0.04-0.17-0.08-0.23-0.09
		c-0.1-0.01-0.17-0.14-0.27-0.31c-0.05-0.1-0.12-0.21-0.19-0.32c-0.19-0.25-0.64-0.33-0.65-0.33l-0.34-0.06L18.42,8.52z
		 M19.32,14.25l0.08,0.08l-0.11,0.01L18.5,14.4l-0.07,0.01l0.02-0.07l0.09-0.29l0.01-0.03l0.03,0l0.44-0.02l0.02,0 M18.23,14.03
		l-0.36,0.04l-0.01,0l-0.01,0l-0.84-0.27l-0.84-0.23L16,13.51l0.18-0.05c0.01,0,0.26-0.07,0.55-0.07c0.23,0,0.42,0.04,0.58,0.12
		c0.43,0.23,0.94,0.42,0.94,0.42l0.2,0.08L18.23,14.03z M21.01,26.25c-0.03,0.02-0.75,0.61-2.41,0.64c-0.04,0-0.08,0-0.12,0
		c-0.95,0-1.48-0.19-1.8-0.31c-0.12-0.04-0.2-0.07-0.26-0.08l-0.01,0l-0.01,0c-0.13-0.06-0.42-0.22-0.41-0.36
		c0-0.05,0.04-0.09,0.12-0.11c0.06-0.02,0.15-0.03,0.27-0.03c0.11,0,0.24,0.01,0.38,0.02c0.14,0.01,0.28,0.02,0.4,0.02
		c0.17,0,0.28-0.02,0.35-0.05c0.11-0.05,0.19-0.08,0.25-0.1c0.1-0.03,0.15-0.05,0.26-0.14c0.14-0.12,0.28-0.18,0.45-0.25
		c0.06-0.03,0.14-0.06,0.22-0.09c0.29-0.13,0.54-0.22,0.55-0.23l0.28-0.1l-0.23,0.19c-0.01,0.01-0.65,0.53-0.76,0.76
		c-0.02,0.04-0.01,0.07,0.01,0.11c0.08,0.14,0.4,0.26,0.55,0.26c0.1,0,0.23-0.05,0.35-0.09c0.11-0.04,0.22-0.08,0.3-0.08
		c0.16,0,1.25-0.07,1.26-0.07l0.16-0.01L21.01,26.25z M17.84,24.59l0.1-0.05l0.35-0.18l0.06-0.03l0.01,0.07l0.07,0.37l0.02,0.1
		l-0.08-0.04l-0.42-0.18L17.84,24.59z M19.16,23.89l0.1,0.1l0.17,0.17l0.03,0.03l-0.02,0.04l-0.12,0.19l-0.09-0.12l0.03,0.29
		l-0.09-0.11l-0.16-0.18l-0.03-0.03L19,24.24l0.13-0.18l0.08,0.23L19.16,23.89z M22.67,19.04c-0.03,0.03-0.09,0.27-0.14,0.46
		c-0.1,0.36-0.2,0.77-0.32,0.89c-0.2,0.2-0.36,0.24-0.63,0.27c-0.22,0.02-0.41,0.42-0.49,0.59c-0.01,0.03-0.02,0.05-0.03,0.07
		c-0.07,0.14-0.15,0.27-0.31,0.3c-0.06,0.01-0.12,0.13-0.19,0.27c-0.07,0.13-0.14,0.27-0.25,0.4c-0.06,0.07-0.12,0.11-0.19,0.11
		c-0.1,0-0.18-0.07-0.25-0.15c0,0.12-0.13,0.29-0.26,0.41c-0.12,0.12-0.26,0.14-0.36,0.14c-0.04,0-0.08,0-0.1-0.01l-0.17,0.19l0,0
		l0,0l-0.24,0.17l-0.04,0.19l-0.01,0.03l-0.02,0.01l-0.26,0.12l0.06,0.26l0.01,0.03l-0.03,0.02l-0.21,0.17l-0.03,0.34l0,0.03
		l-0.03,0.01l-0.38,0.13l-0.05,0.02l-0.01-0.05l-0.08-0.29l0-0.01l0-0.01c0.01-0.08,0.01-0.22-0.03-0.25
		c-0.01-0.01-0.02-0.01-0.02-0.02h0c-0.05,0-0.05-0.04-0.07-0.1c-0.02-0.08,0.04-0.2,0.14-0.39c0.05-0.09,0.11-0.22,0.11-0.26
		c0-0.12-0.03-0.34-0.05-0.5c-0.02-0.17,0.03-0.37,0.15-0.54c0.04-0.06,0.06-0.19,0.08-0.34c0.02-0.13,0.03-0.28,0.08-0.43
		c0.01-0.03,0.02-0.07,0.03-0.11c0.1-0.32,0.26-0.86,0.18-1.22c-0.06-0.28-0.32-0.42-0.55-0.55c-0.09-0.05-0.18-0.1-0.25-0.15
		c-0.25-0.19-0.37-0.42-0.5-0.76c-0.06-0.15-0.08-0.26-0.1-0.33c-0.02-0.1-0.03-0.13-0.09-0.17c-0.14-0.09-0.09-0.28-0.06-0.39
		c0.01-0.02,0.01-0.06,0.01-0.07c0-0.05-0.04-0.18-0.19-0.3c-0.05-0.04-0.06-0.09-0.06-0.12c0-0.13,0.17-0.24,0.31-0.34
		c0.04-0.03,0.07-0.05,0.1-0.07c0.12-0.1,0.24-0.45,0.21-0.67c-0.02-0.23-0.07-0.39-0.25-0.46c-0.02-0.01-0.05-0.02-0.07-0.02
		c-0.05,0-0.09,0.02-0.14,0.04c-0.04,0.02-0.08,0.04-0.11,0.04c-0.05,0-0.09-0.03-0.12-0.09c-0.04-0.08-0.09-0.09-0.19-0.09
		c-0.07-0.01-0.17-0.01-0.27-0.07c-0.17-0.08-0.24-0.2-0.29-0.29c-0.02-0.04-0.05-0.08-0.07-0.1c-0.05-0.05-0.19-0.07-0.27-0.08
		c-0.04-0.01-0.08-0.01-0.1-0.02c-0.08-0.03-0.27-0.12-0.42-0.29c-0.04-0.04-0.06-0.05-0.08-0.05c-0.03,0-0.07,0.02-0.1,0.05
		c-0.04,0.03-0.09,0.06-0.15,0.06c-0.03,0.01-0.07,0.01-0.11,0.01c-0.12,0-0.21-0.06-0.33-0.21c-0.07-0.08-0.15-0.09-0.26-0.09
		h-0.02h-0.02c-0.1,0-0.22-0.01-0.32-0.08c-0.17-0.13-0.13-0.28-0.1-0.42c0.01-0.06,0.03-0.12,0.03-0.17c0-0.17-0.22-0.55-0.43-0.81
		c-0.03-0.03-0.05-0.06-0.07-0.09c0.05,0.1,0.08,0.2,0.08,0.27c0,0.06,0.06,0.18,0.12,0.29c0.1,0.18,0.19,0.35,0.09,0.45
		c-0.02,0.02-0.04,0.03-0.06,0.03c-0.15,0-0.39-0.43-0.43-0.54c-0.01-0.04-0.04-0.08-0.07-0.14c-0.07-0.13-0.17-0.3-0.17-0.51
		c0-0.18-0.05-0.26-0.14-0.4c-0.04-0.07-0.09-0.14-0.14-0.24c-0.17-0.33-0.08-1.09-0.07-1.13l0-0.02l0.02-0.01l0.74-0.62l0,0l0,0
		l0.61-0.42l0,0l0,0c0.01-0.01,0.97-0.59,1.81-0.87c0.83-0.27,2-0.37,2.01-0.37l0.12-0.01l-0.08,0.1c-0.08,0.1-0.31,0.36-0.35,0.42
		c-0.05,0.07-0.07,0.07-0.24,0.09c-0.06,0.01-0.13,0.01-0.24,0.02c-0.14,0.02-0.19,0.05-0.2,0.08c-0.02,0.04,0.01,0.12,0.04,0.21
		c0.01,0.03,0.03,0.07,0.04,0.1c0.04,0.11,0.07,0.11,0.17,0.12c0.06,0.01,0.13,0.02,0.22,0.05c0.1,0.04,0.18,0.09,0.27,0.14
		c0.11,0.07,0.2,0.12,0.29,0.12c0.02,0,0.04,0,0.06-0.01c0.02-0.01,0.04-0.02,0.04-0.03c0.01-0.03-0.01-0.09-0.03-0.16
		c-0.04-0.11-0.08-0.26-0.05-0.42c0.03-0.15,0.11-0.18,0.16-0.18c0.09,0,0.19,0.08,0.29,0.16c0.05,0.04,0.09,0.08,0.13,0.1
		c0.14,0.09,0.15,0.09,0.28,0.11c0.03,0.01,0.07,0.01,0.12,0.02l0.01,0c0.13,0.02,0.13,0.02,0.16,0.05
		c0.01,0.01,0.04,0.04,0.21,0.11c0.11,0.05,0.21,0.08,0.28,0.11c0.19,0.07,0.31,0.11,0.33,0.25c0,0.03,0.01,0.08-0.02,0.11
		c-0.03,0.04-0.08,0.05-0.16,0.06c-0.07,0.01-0.17,0.02-0.29,0.07c-0.02,0.01-0.04,0.01-0.05,0.02c0.03,0.02,0.08,0.03,0.12,0.05
		c0.12,0.04,0.27,0.1,0.38,0.18c0.06,0.04,0.12,0.1,0.1,0.16c-0.02,0.06-0.1,0.06-0.12,0.06c-0.14,0-0.41-0.07-0.63-0.18
		c-0.06-0.03-0.15-0.07-0.18-0.07h0c0,0.01-0.01,0.02-0.01,0.03c-0.02,0.06-0.05,0.16-0.21,0.25c-0.09,0.05-0.18,0.09-0.26,0.13
		c-0.24,0.11-0.47,0.22-0.63,0.45c-0.1,0.14-0.14,0.28-0.18,0.41c-0.04,0.15-0.09,0.3-0.22,0.4c-0.11,0.08-0.05,0.33,0,0.53
		c0.05,0.19,0.08,0.34-0.01,0.38c-0.04,0.02-0.08,0.03-0.12,0.03c-0.16,0-0.2-0.17-0.24-0.34c-0.03-0.12-0.05-0.23-0.12-0.31
		c-0.05-0.07-0.12-0.1-0.21-0.1c-0.11,0-0.26,0.04-0.47,0.1c-0.11,0.03-0.24,0.07-0.38,0.1c-0.65,0.16-0.89,0.38-0.89,0.82
		c0,0.32,0.02,0.33,0.15,0.39c0.05,0.02,0.12,0.05,0.2,0.1c0.03,0.02,0.07,0.03,0.1,0.03c0.15,0,0.34-0.15,0.47-0.26
		c0.1-0.09,0.16-0.13,0.2-0.13c0.02,0,0.04,0.01,0.05,0.02c0.06,0.06,0.04,0.2,0,0.45c-0.02,0.11-0.03,0.22-0.03,0.3
		c0,0.13,0.12,0.17,0.46,0.25c0.05,0.01,0.1,0.03,0.16,0.04c0.12,0.03,0.2,0.08,0.23,0.14c0.04,0.08,0.01,0.16-0.02,0.23
		c-0.03,0.09-0.04,0.13,0,0.17c0.07,0.07,0.08,0.08,0.1,0.08c0.01,0,0.02,0,0.04-0.01c0.04-0.01,0.12-0.02,0.25-0.02
		c0.24,0,0.37,0.14,0.44,0.25c0.06-0.14,0.18-0.37,0.38-0.47c0.08-0.04,0.15-0.06,0.22-0.06c0.09,0,0.15,0.03,0.21,0.07
		c0.04,0.02,0.08,0.04,0.13,0.06c0.06,0.01,0.08,0.02,0.09,0.02c0.01,0,0.03,0,0.14,0.02c0.06,0.01,0.11,0.02,0.18,0.02
		c0.05,0,0.1,0,0.15,0c0.07,0,0.14-0.01,0.23-0.01c0.12,0,0.23,0.01,0.36,0.02c0.37,0.03,0.46,0.21,0.53,0.36
		c0.03,0.06,0.06,0.11,0.1,0.16c0.11,0.11,0.13,0.11,0.3,0.16c0.07,0.02,0.16,0.04,0.28,0.08c0.52,0.16,0.66,0.6,0.68,0.73
		c0.02,0.09,0.03,0.12,0.05,0.14c0.03,0.03,0.09,0.05,0.19,0.08c0.03,0.01,0.06,0.02,0.1,0.03c0.15,0.05,0.17,0.06,0.18,0.1
		c0.01,0.03,0,0.05-0.01,0.06c-0.01,0.01-0.03,0.05,0.06,0.18c0.08,0.13,0.12,0.15,0.15,0.15c0.03,0,0.06-0.02,0.1-0.04
		c0.06-0.03,0.15-0.07,0.28-0.09c0.07-0.01,0.13-0.01,0.17-0.01c0.12,0,0.16,0.04,0.21,0.12c0.02,0.03,0.05,0.07,0.1,0.12
		c0.03,0.03,0.05,0.05,0.08,0.08c0.17,0.17,0.35,0.34,0.35,0.56C23.27,18.45,22.67,19.03,22.67,19.04z M27.53,17.36l-0.01,0.02
		h-0.02h-0.05l0-0.05c0-0.05-0.08-1.08-0.88-1.3c-0.59-0.16-1.29-0.6-1.44-1.33c-0.16-0.74-0.19-1.85-0.08-2.04
		c0.1-0.18,0.61-0.4,0.66-0.42l0.03-0.01l0.02,0.02l0.26,0.26l0,0l0,0.01c0.01,0.02,1.02,1.77,1.31,3.01
		c0.07,0.3,0.19,0.93,0.21,1.76c0,0.02,0,0.03,0,0.03l0,0.02L27.53,17.36z"/>
</g>
</svg>
